<svg width="25" height="24" viewBox="0 0 25 24" fill="none" xmlns="http://www.w3.org/2000/svg">
<g id="Huge-icon">
<path id="Vector" d="M22.0801 12V18C22.0801 20.2091 20.2892 22 18.0801 22H6.08008C3.87094 22 2.08008 20.2091 2.08008 18V6C2.08008 3.79086 3.87094 2 6.08008 2H12.0801M15.7664 4.02275C15.7664 4.02275 15.7664 5.45305 17.1967 6.88334C18.627 8.31364 20.0573 8.31364 20.0573 8.31364M9.23475 15.9896L12.2384 15.5605C12.6716 15.4986 13.0731 15.2978 13.3826 14.9884L21.4876 6.88334C22.2776 6.09341 22.2776 4.81268 21.4876 4.02275L20.0573 2.59245C19.2674 1.80252 17.9867 1.80252 17.1967 2.59245L9.09172 10.6975C8.78225 11.0069 8.5815 11.4084 8.5196 11.8417L8.09051 14.8453C7.99516 15.5128 8.56728 16.0849 9.23475 15.9896Z" stroke="#112042" stroke-width="1.5" stroke-linecap="round"/>
</g>
</svg>
