<svg width="18" height="19" viewBox="0 0 18 19" fill="none" xmlns="http://www.w3.org/2000/svg">
<g id="Huge-icon">
<path id="Vector" d="M11.25 5.75C11.25 6.99264 10.2426 8 9 8V9.5C11.0711 9.5 12.75 7.82107 12.75 5.75H11.25ZM9 8C7.75736 8 6.75 6.99264 6.75 5.75H5.25C5.25 7.82107 6.92893 9.5 9 9.5V8ZM6.75 5.75C6.75 4.50736 7.75736 3.5 9 3.5V2C6.92893 2 5.25 3.67893 5.25 5.75H6.75ZM9 3.5C10.2426 3.5 11.25 4.50736 11.25 5.75H12.75C12.75 3.67893 11.0711 2 9 2V3.5ZM13.5 13.625C13.5 13.9128 13.2472 14.3752 12.3769 14.8103C11.5514 15.2231 10.3586 15.5 9 15.5V17C10.5409 17 11.9731 16.6893 13.0477 16.152C14.0775 15.6371 15 14.787 15 13.625H13.5ZM9 15.5C7.64144 15.5 6.44857 15.2231 5.6231 14.8103C4.75276 14.3752 4.5 13.9128 4.5 13.625H3C3 14.787 3.92249 15.6371 4.95228 16.152C6.02693 16.6893 7.45907 17 9 17V15.5ZM4.5 13.625C4.5 13.3372 4.75276 12.8748 5.6231 12.4397C6.44857 12.0269 7.64144 11.75 9 11.75V10.25C7.45907 10.25 6.02693 10.5607 4.95228 11.098C3.92249 11.6129 3 12.463 3 13.625H4.5ZM9 11.75C10.3586 11.75 11.5514 12.0269 12.3769 12.4397C13.2472 12.8748 13.5 13.3372 13.5 13.625H15C15 12.463 14.0775 11.6129 13.0477 11.098C11.9731 10.5607 10.5409 10.25 9 10.25V11.75Z" fill="#817C7C"/>
</g>
</svg>
